<svg width="85" height="24" viewBox="0 0 85 24" fill="none" xmlns="http://www.w3.org/2000/svg">
<path d="M1.66221 19.0613C1.66221 19.0466 1.66224 19.0318 1.66231 19.0171H4.1459C4.14581 19.0318 4.14577 19.0465 4.14577 19.0613C4.14577 19.9563 4.30239 20.6051 4.61563 21.0079C4.94006 21.4106 5.45467 21.612 6.15947 21.612C6.86426 21.612 7.37328 21.4106 7.68652 21.0079C8.01095 20.6051 8.17317 19.9563 8.17317 19.0613C8.17317 19.0465 8.17312 19.0318 8.17303 19.0171H10.6566C10.6567 19.0318 10.6567 19.0466 10.6567 19.0613C10.6567 20.594 10.2987 21.7071 9.58275 22.4007C9.10038 22.8677 8.41364 23.175 7.52253 23.3224C7.47281 23.2364 7.41409 23.1612 7.34637 23.0966C7.09569 22.8499 6.68982 22.7266 6.12876 22.7266C5.56771 22.7266 5.15985 22.8499 4.90519 23.0966C4.84105 23.1588 4.78512 23.2308 4.73739 23.3126C3.87156 23.1617 3.19889 22.8577 2.7194 22.4007C2.01461 21.7071 1.66221 20.594 1.66221 19.0613Z" fill="white"/>
<path fill-rule="evenodd" clip-rule="evenodd" d="M0 11.6866C0 7.37871 1.7989 5.53247 6.03579 5.53247C7.76485 5.53247 9.09127 5.84341 10.0543 6.50783C9.90361 6.81933 9.82826 7.22079 9.82826 7.71221C9.82826 8.45682 10.0013 8.99761 10.3473 9.33458C10.6831 9.65129 11.2118 9.81672 11.9336 9.8309C12.0263 10.3899 12.0716 11.0077 12.0716 11.6866C12.0716 15.9945 10.249 17.8408 6.03579 17.8408C1.7989 17.8408 0 15.9945 0 11.6866ZM6.03579 7.61541C3.64515 7.61541 2.67468 8.7989 2.67468 11.6866C2.67468 14.5507 3.66882 15.7578 6.03579 15.7578C8.40277 15.7578 9.37323 14.5507 9.37323 11.6866C9.37323 8.82257 8.40277 7.61541 6.03579 7.61541Z" fill="white"/>
<path fill-rule="evenodd" clip-rule="evenodd" d="M12.1309 6.14233C11.5698 6.14233 11.1619 6.26569 10.9073 6.51239C10.6566 6.75512 10.5312 7.14905 10.5312 7.69419C10.5312 8.23933 10.6566 8.63525 10.9073 8.88195C11.1619 9.12468 11.5698 9.24604 12.1309 9.24604C12.6919 9.24604 13.0978 9.12468 13.3485 8.88195C13.6031 8.63525 13.7305 8.23933 13.7305 7.69419C13.7305 7.14905 13.6031 6.75512 13.3485 6.51239C13.0978 6.26569 12.6919 6.14233 12.1309 6.14233Z" fill="white"/>
<path d="M21.5807 5.52979C17.3438 5.52979 15.5449 7.37604 15.5449 11.6839C15.5449 15.9918 17.3438 17.8381 21.5807 17.8381C25.7939 17.8381 27.6165 15.9918 27.6165 11.6839C27.6165 7.37604 25.7939 5.52979 21.5807 5.52979ZM18.2196 11.6839C18.2196 8.79622 19.1901 7.61274 21.5807 7.61274C23.9477 7.61274 24.9182 8.81989 24.9182 11.6839C24.9182 14.548 23.9477 15.7551 21.5807 15.7551C19.2137 15.7551 18.2196 14.548 18.2196 11.6839Z" fill="white"/>
<path d="M33.8616 13.8852V7.5654H37.3648V5.76649H33.8616V2.87878H31.1633V5.76649H29.2697V7.5654H31.1633V14.1693C31.1633 16.2759 32.3941 17.6014 34.6664 17.6014H37.3648V15.5184H35.6369C34.4297 15.5184 33.8616 14.8557 33.8616 13.8852Z" fill="white"/>
<path d="M45.0656 5.52979C40.8287 5.52979 39.0298 7.37604 39.0298 11.6839C39.0298 15.9918 40.8287 17.8381 45.0656 17.8381C49.2788 17.8381 51.1014 15.9918 51.1014 11.6839C51.1014 7.37604 49.2788 5.52979 45.0656 5.52979ZM41.7045 11.6839C41.7045 8.79622 42.6749 7.61274 45.0656 7.61274C47.4325 7.61274 48.403 8.81989 48.403 11.6839C48.403 14.548 47.4325 15.7551 45.0656 15.7551C42.6986 15.7551 41.7045 14.548 41.7045 11.6839Z" fill="white"/>
<path d="M56.7311 17.6014V5.76649H54.0327V17.6014H56.7311ZM55.3819 0.67749C54.1984 0.67749 53.7013 1.15089 53.7013 2.26337C53.7013 3.37585 54.1984 3.87291 55.3582 3.87291C56.5417 3.87291 57.0625 3.37585 57.0625 2.26337C57.0625 1.17456 56.5417 0.67749 55.3819 0.67749Z" fill="white"/>
<path d="M62.8669 6.90264L62.5119 5.76649H60.3816V17.6014H63.0563V11.2105C63.0563 8.67788 63.8847 7.61274 65.802 7.61274C67.6009 7.61274 68.3346 8.65421 68.3346 11.2105V17.6014H71.033V11.2105C71.033 7.23402 69.6601 5.52979 66.4884 5.52979C64.8078 5.52979 63.6243 5.95585 62.8669 6.90264Z" fill="white"/>
<path d="M82.3016 13.3645C81.9703 15.045 81.1182 15.7551 79.4376 15.7551C77.0943 15.7551 76.0765 14.5243 76.0765 11.6839C76.0765 8.84356 77.0943 7.61274 79.4376 7.61274C81.1182 7.61274 81.9939 8.32283 82.3016 10.0034H85C84.5976 6.87897 82.9407 5.52979 79.4376 5.52979C75.2007 5.52979 73.4018 7.37604 73.4018 11.6839C73.4018 15.9918 75.2007 17.8381 79.4376 17.8381C82.9407 17.8381 84.5976 16.4889 85 13.3645H82.3016Z" fill="white"/>
</svg>
